<svg xmlns="http://www.w3.org/2000/svg" viewBox="0 0 503.27 273.83"><defs><style>.a{fill:#878787;}.b{fill:#e9abc2;}.c{fill:none;}</style></defs><title>logo</title><path class="a" d="M19.89,177.26,42.83,212v-35a7.69,7.69,0,0,1,1.47-5.12,4.91,4.91,0,0,1,4-1.7,5.09,5.09,0,0,1,4.06,1.7,7.63,7.63,0,0,1,1.48,5.12v46.31q0,7.75-6.42,7.76a8.52,8.52,0,0,1-2.9-.47,7.11,7.11,0,0,1-2.4-1.46A14.06,14.06,0,0,1,40,226.73c-.65-.9-1.29-1.82-1.93-2.75L15.68,189.67v34.51a7.33,7.33,0,0,1-1.57,5.1,5.19,5.19,0,0,1-4,1.73,5.14,5.14,0,0,1-4-1.75,7.5,7.5,0,0,1-1.53-5.08V178.75a13.07,13.07,0,0,1,.64-4.54,6.54,6.54,0,0,1,2.53-3,6.92,6.92,0,0,1,3.82-1.14,6.72,6.72,0,0,1,2.75.51,6.81,6.81,0,0,1,2,1.41A14.62,14.62,0,0,1,18,174.33Z" transform="translate(-4.36)"/><path class="a" d="M75.16,205.66V177.34a7.92,7.92,0,0,1,1.62-5.42,5.49,5.49,0,0,1,4.28-1.8,5.63,5.63,0,0,1,4.4,1.8,7.87,7.87,0,0,1,1.62,5.42v29a26.31,26.31,0,0,0,1.11,8.26,9.56,9.56,0,0,0,3.91,5.14c1.88,1.22,4.5,1.83,7.88,1.83q7,0,9.88-3.72t2.89-11.27v-29.2c0-2.43.53-4.25,1.61-5.44a5.49,5.49,0,0,1,4.3-1.78A5.67,5.67,0,0,1,123,171.9c1.11,1.19,1.67,3,1.67,5.44v28.32a42.19,42.19,0,0,1-1.34,11.53,17.83,17.83,0,0,1-5.09,8.11,19.59,19.59,0,0,1-7.47,4.34,32.71,32.71,0,0,1-10,1.37,41,41,0,0,1-11.69-1.47,18.68,18.68,0,0,1-8-4.54,18.28,18.28,0,0,1-4.54-7.87A39.84,39.84,0,0,1,75.16,205.66Z" transform="translate(-4.36)"/><path class="a" d="M196,211.4a15.59,15.59,0,0,1-1.39,6.09,22.23,22.23,0,0,1-12,11.55,27.29,27.29,0,0,1-10.76,2,37.61,37.61,0,0,1-8.48-.89,23.63,23.63,0,0,1-6.92-2.75,23.3,23.3,0,0,1-5.73-4.92,29.11,29.11,0,0,1-4-6.21,32.12,32.12,0,0,1-2.48-7.33,39.79,39.79,0,0,1-.82-8.27,36.67,36.67,0,0,1,2.07-12.73,27.12,27.12,0,0,1,5.92-9.62,25.92,25.92,0,0,1,9-6.09,29.35,29.35,0,0,1,11.05-2.08A27.49,27.49,0,0,1,184.28,173a23.08,23.08,0,0,1,8.55,7,13.88,13.88,0,0,1,3,7.94,5.13,5.13,0,0,1-1.44,3.61,4.56,4.56,0,0,1-3.49,1.57,4.8,4.8,0,0,1-3.44-1.09,15.22,15.22,0,0,1-2.55-3.73,18,18,0,0,0-5.48-6.55,13.44,13.44,0,0,0-7.77-2.17,14.08,14.08,0,0,0-11.71,5.59q-4.35,5.58-4.36,15.86a29.39,29.39,0,0,0,1.93,11.43,14.49,14.49,0,0,0,5.46,6.81,15.09,15.09,0,0,0,8.27,2.25,14.47,14.47,0,0,0,8.7-2.56,15.29,15.29,0,0,0,5.36-7.49,12.77,12.77,0,0,1,1.89-3.79,4.27,4.27,0,0,1,3.62-1.47,5.07,5.07,0,0,1,3.65,1.49A4.93,4.93,0,0,1,196,211.4Z" transform="translate(-4.36)"/><path class="a" d="M226.61,177.34V220.2h24.17a6.34,6.34,0,0,1,4.44,1.41,4.53,4.53,0,0,1,1.55,3.53,4.43,4.43,0,0,1-1.53,3.51,6.52,6.52,0,0,1-4.46,1.35H222c-2.6,0-4.47-.57-5.61-1.73s-1.7-3-1.7-5.58V177.34a7.92,7.92,0,0,1,1.62-5.42,5.5,5.5,0,0,1,4.28-1.8,5.69,5.69,0,0,1,4.36,1.78C226.05,173.09,226.61,174.91,226.61,177.34Z" transform="translate(-4.36)"/><path class="a" d="M311.63,180.32H284.76v14.46H309.5a5.89,5.89,0,0,1,4.08,1.22,4.19,4.19,0,0,1,1.34,3.23,4.35,4.35,0,0,1-1.32,3.28,5.78,5.78,0,0,1-4.1,1.26H284.76v16.75h27.79a6.08,6.08,0,0,1,4.24,1.31,4.49,4.49,0,0,1,1.43,3.47,4.36,4.36,0,0,1-1.43,3.39,6,6,0,0,1-4.24,1.31H280.14c-2.6,0-4.47-.57-5.61-1.73s-1.7-3-1.7-5.58V178.43a10,10,0,0,1,.76-4.2,4.8,4.8,0,0,1,2.39-2.37,10.16,10.16,0,0,1,4.16-.74h31.49a6.16,6.16,0,0,1,4.24,1.26,4.72,4.72,0,0,1,0,6.67A6.16,6.16,0,0,1,311.63,180.32Z" transform="translate(-4.36)"/><path class="a" d="M373.59,223.33l-2.81-7.39H346.85L344,223.49a26.25,26.25,0,0,1-2.82,6,4.48,4.48,0,0,1-3.81,1.55,5.58,5.58,0,0,1-4-1.65,5.05,5.05,0,0,1-1.73-3.74,8,8,0,0,1,.41-2.49q.39-1.27,1.32-3.57l15.06-38.24c.43-1.1.95-2.41,1.55-4a19.74,19.74,0,0,1,1.93-3.83,7.8,7.8,0,0,1,2.69-2.47,8.22,8.22,0,0,1,4.11-.94,8.34,8.34,0,0,1,4.16.94,7.9,7.9,0,0,1,2.69,2.43,16.62,16.62,0,0,1,1.73,3.19c.47,1.14,1.06,2.66,1.79,4.56l15.38,38a19,19,0,0,1,1.81,6.3,5.22,5.22,0,0,1-1.71,3.76A5.63,5.63,0,0,1,380.5,231a5.29,5.29,0,0,1-2.41-.51,5,5,0,0,1-1.68-1.36,12.83,12.83,0,0,1-1.47-2.65C374.42,225.3,374,224.24,373.59,223.33ZM350,207h17.59l-8.88-24.3Z" transform="translate(-4.36)"/><path class="a" d="M415,177.34V220.2h24.18a6.32,6.32,0,0,1,4.43,1.41,4.53,4.53,0,0,1,1.55,3.53,4.43,4.43,0,0,1-1.53,3.51,6.51,6.51,0,0,1-4.45,1.35h-28.8c-2.6,0-4.46-.57-5.6-1.73s-1.71-3-1.71-5.58V177.34a8,8,0,0,1,1.62-5.42,5.52,5.52,0,0,1,4.29-1.8,5.67,5.67,0,0,1,4.35,1.78C414.44,173.09,415,174.91,415,177.34Z" transform="translate(-4.36)"/><path class="a" d="M500,180.32H473.15v14.46h24.74A5.87,5.87,0,0,1,502,196a4.17,4.17,0,0,1,1.35,3.23,4.33,4.33,0,0,1-1.33,3.28,5.77,5.77,0,0,1-4.1,1.26H473.15v16.75h27.79a6.13,6.13,0,0,1,4.25,1.31,4.51,4.51,0,0,1,1.42,3.47,4.38,4.38,0,0,1-1.42,3.39,6.08,6.08,0,0,1-4.25,1.31H468.53c-2.6,0-4.46-.57-5.6-1.73s-1.71-3-1.71-5.58V178.43a10,10,0,0,1,.76-4.2,4.8,4.8,0,0,1,2.39-2.37,10.19,10.19,0,0,1,4.16-.74H500a6.14,6.14,0,0,1,4.24,1.26,4.7,4.7,0,0,1,0,6.67A6.14,6.14,0,0,1,500,180.32Z" transform="translate(-4.36)"/><path class="b" d="M10.49,252.41l9.15,13.83v-14a3,3,0,0,1,.58-2,2,2,0,0,1,1.57-.69,2,2,0,0,1,1.62.69,3,3,0,0,1,.59,2v18.45c0,2.06-.85,3.09-2.56,3.09a3.47,3.47,0,0,1-1.15-.18,3,3,0,0,1-1-.59,4.77,4.77,0,0,1-.83-.94c-.26-.35-.51-.72-.77-1.09L8.81,257.36v13.75a3,3,0,0,1-.62,2,2.07,2.07,0,0,1-1.6.69,2,2,0,0,1-1.62-.7,2.94,2.94,0,0,1-.61-2V253a5.14,5.14,0,0,1,.26-1.81,2.61,2.61,0,0,1,1-1.18,2.79,2.79,0,0,1,1.52-.46,2.5,2.5,0,0,1,1.89.77,5.78,5.78,0,0,1,.71.92Z" transform="translate(-4.36)"/><path class="b" d="M32.52,263.73V252.45a3.15,3.15,0,0,1,.64-2.16,2.22,2.22,0,0,1,1.71-.73,2.25,2.25,0,0,1,1.75.73,3.15,3.15,0,0,1,.65,2.16V264a10.29,10.29,0,0,0,.44,3.28,3.77,3.77,0,0,0,1.56,2.06,5.79,5.79,0,0,0,3.14.72c1.85,0,3.17-.49,3.94-1.48a7.22,7.22,0,0,0,1.15-4.49V252.45a3.13,3.13,0,0,1,.64-2.17,2.17,2.17,0,0,1,1.71-.72,2.26,2.26,0,0,1,1.74.72,3.08,3.08,0,0,1,.66,2.17v11.28a16.5,16.5,0,0,1-.54,4.59,7.05,7.05,0,0,1-2,3.24,7.82,7.82,0,0,1-3,1.73,13.1,13.1,0,0,1-4,.54,16.31,16.31,0,0,1-4.65-.58,7.55,7.55,0,0,1-3.19-1.81,7.37,7.37,0,0,1-1.81-3.14A16.1,16.1,0,0,1,32.52,263.73ZM43,243.85h2.16c.55,0,.82.08.82.24a4.82,4.82,0,0,1-.9,1c-.6.61-1.2,1.19-1.81,1.74a6.78,6.78,0,0,1-1.26,1,4.25,4.25,0,0,1-1.95.47c-.46,0-.69-.14-.69-.4a2.31,2.31,0,0,1,.42-.95l.71-1.34a4.43,4.43,0,0,1,1.09-1.49A2.53,2.53,0,0,1,43,243.85Z" transform="translate(-4.36)"/><path class="b" d="M80.66,266a6.23,6.23,0,0,1-.55,2.43A8.81,8.81,0,0,1,78.37,271a9,9,0,0,1-3,2,11,11,0,0,1-4.29.78,15.26,15.26,0,0,1-3.38-.35,9.6,9.6,0,0,1-2.76-1.1,9.08,9.08,0,0,1-2.28-2A11.61,11.61,0,0,1,61.05,268a12.86,12.86,0,0,1-1-2.92,15.92,15.92,0,0,1-.33-3.3,14.67,14.67,0,0,1,.82-5.08,10.86,10.86,0,0,1,2.37-3.83,10.17,10.17,0,0,1,3.6-2.42,11.56,11.56,0,0,1,4.4-.84A10.94,10.94,0,0,1,76,250.7a9.21,9.21,0,0,1,3.41,2.81,5.57,5.57,0,0,1,1.19,3.16,2.06,2.06,0,0,1-.58,1.44,1.81,1.81,0,0,1-1.39.63,2,2,0,0,1-1.37-.43,6.43,6.43,0,0,1-1-1.49,7,7,0,0,0-2.18-2.61,5.32,5.32,0,0,0-3.1-.87,5.61,5.61,0,0,0-4.67,2.23,10.11,10.11,0,0,0-1.73,6.32,12,12,0,0,0,.76,4.55,5.78,5.78,0,0,0,2.18,2.72,6,6,0,0,0,3.3.89,5.73,5.73,0,0,0,3.46-1,6.08,6.08,0,0,0,2.14-3,5.19,5.19,0,0,1,.76-1.51A1.69,1.69,0,0,1,78.6,264a2,2,0,0,1,1.45.59A1.94,1.94,0,0,1,80.66,266Z" transform="translate(-4.36)"/><path class="b" d="M92.87,252.45v17.07h9.64a2.51,2.51,0,0,1,1.77.57,1.93,1.93,0,0,1,0,2.81,2.66,2.66,0,0,1-1.78.53H91a3,3,0,0,1-2.23-.69,3.09,3.09,0,0,1-.68-2.22V252.45a3.1,3.1,0,0,1,.65-2.16,2.19,2.19,0,0,1,1.7-.73,2.26,2.26,0,0,1,1.74.72A3.08,3.08,0,0,1,92.87,252.45Z" transform="translate(-4.36)"/><path class="b" d="M126.76,253.63H116.05v5.76h9.86a2.38,2.38,0,0,1,1.62.49,1.65,1.65,0,0,1,.54,1.29,1.72,1.72,0,0,1-.53,1.3,2.28,2.28,0,0,1-1.63.51h-9.86v6.67h11.07a2.46,2.46,0,0,1,1.69.52,1.79,1.79,0,0,1,.57,1.39,1.75,1.75,0,0,1-.57,1.35,2.41,2.41,0,0,1-1.69.52H114.2a3.05,3.05,0,0,1-2.23-.69,3.09,3.09,0,0,1-.68-2.22V252.88a3.8,3.8,0,0,1,.31-1.67,1.87,1.87,0,0,1,1-1,4,4,0,0,1,1.65-.3h12.56a2.39,2.39,0,0,1,1.68.51,1.71,1.71,0,0,1,.56,1.32,1.74,1.74,0,0,1-.56,1.34A2.44,2.44,0,0,1,126.76,253.63Z" transform="translate(-4.36)"/><path class="b" d="M146.76,249.56a12.54,12.54,0,0,1,6.27,1.49,9.6,9.6,0,0,1,4,4.21,14.25,14.25,0,0,1,1.34,6.41,15.67,15.67,0,0,1-.73,4.94,10.68,10.68,0,0,1-2.21,3.86,9.68,9.68,0,0,1-3.62,2.5,13.19,13.19,0,0,1-4.91.86,13,13,0,0,1-4.93-.89,9.66,9.66,0,0,1-3.64-2.5,10.83,10.83,0,0,1-2.2-3.89,16,16,0,0,1-.74-4.92,15.13,15.13,0,0,1,.78-5,10.61,10.61,0,0,1,2.24-3.84A9.77,9.77,0,0,1,142,250.4,13.09,13.09,0,0,1,146.76,249.56Zm6.76,12.07a10.92,10.92,0,0,0-.84-4.46,6.2,6.2,0,0,0-2.37-2.86,6.52,6.52,0,0,0-3.55-1,6.35,6.35,0,0,0-2.63.54,5.79,5.79,0,0,0-2.08,1.56,7.55,7.55,0,0,0-1.38,2.62,11.67,11.67,0,0,0-.5,3.57,12,12,0,0,0,.5,3.62,7.51,7.51,0,0,0,1.42,2.68,6,6,0,0,0,2.12,1.59,6.23,6.23,0,0,0,2.62.53,6.41,6.41,0,0,0,3.35-.91,6.32,6.32,0,0,0,2.43-2.81A11,11,0,0,0,153.52,261.63Z" transform="translate(-4.36)"/><path class="b" d="M180.1,250h6.19a16.67,16.67,0,0,1,4.15.45,7.65,7.65,0,0,1,3.13,1.68q3.68,3.15,3.67,9.54a18.4,18.4,0,0,1-.37,3.86,11.32,11.32,0,0,1-1.14,3.15,9.8,9.8,0,0,1-2,2.5,8,8,0,0,1-2.07,1.36,9.49,9.49,0,0,1-2.41.72,18.1,18.1,0,0,1-2.9.21h-6.2a3.9,3.9,0,0,1-1.95-.39,1.8,1.8,0,0,1-.86-1.11,7.11,7.11,0,0,1-.2-1.84V252.88A2.5,2.5,0,0,1,180.1,250Zm1.84,3.77v15.92h3.6c.79,0,1.41,0,1.85-.06a5.74,5.74,0,0,0,1.4-.32,3.86,3.86,0,0,0,1.25-.72q2.39-2,2.38-6.95a10.19,10.19,0,0,0-1-5.2,4.63,4.63,0,0,0-2.58-2.2,13,13,0,0,0-3.72-.47Z" transform="translate(-4.36)"/><path class="b" d="M220.16,253.63H209.45v5.76h9.86a2.39,2.39,0,0,1,1.63.49,1.85,1.85,0,0,1,0,2.59,2.26,2.26,0,0,1-1.63.51h-9.86v6.67h11.07a2.49,2.49,0,0,1,1.7.52,1.79,1.79,0,0,1,.56,1.39,1.74,1.74,0,0,1-.56,1.35,2.44,2.44,0,0,1-1.7.52H207.61a2.49,2.49,0,0,1-2.91-2.91V252.88a4,4,0,0,1,.3-1.67,1.87,1.87,0,0,1,.95-1,4,4,0,0,1,1.66-.3h12.55a2.42,2.42,0,0,1,1.69.51,1.71,1.71,0,0,1,.55,1.32,1.74,1.74,0,0,1-.55,1.34A2.47,2.47,0,0,1,220.16,253.63Z" transform="translate(-4.36)"/><path class="b" d="M256.33,270.78l-1.12-2.95h-9.54l-1.12,3a10.6,10.6,0,0,1-1.12,2.37,1.77,1.77,0,0,1-1.53.62,2.23,2.23,0,0,1-1.58-.66,2,2,0,0,1-.69-1.49,3.64,3.64,0,0,1,.16-1c.11-.34.29-.81.53-1.42l6-15.24c.18-.44.38-1,.62-1.58a8.36,8.36,0,0,1,.77-1.53,3.15,3.15,0,0,1,1.07-1,3.29,3.29,0,0,1,1.64-.38,3.34,3.34,0,0,1,1.66.38,3.13,3.13,0,0,1,1.07,1,7.06,7.06,0,0,1,.69,1.27c.19.45.42,1.06.71,1.82l6.13,15.14a7.58,7.58,0,0,1,.72,2.52,2,2,0,0,1-.68,1.49,2.24,2.24,0,0,1-1.64.68,2.06,2.06,0,0,1-1-.2,1.86,1.86,0,0,1-.67-.54,4.67,4.67,0,0,1-.58-1.06C256.66,271.56,256.48,271.14,256.33,270.78Zm-9.41-6.52h7l-3.54-9.69Z" transform="translate(-4.36)"/><path class="b" d="M272.83,252.45v17.07h9.64a2.5,2.5,0,0,1,1.76.57,1.81,1.81,0,0,1,.62,1.4,1.78,1.78,0,0,1-.61,1.41,2.63,2.63,0,0,1-1.77.53H271a2.5,2.5,0,0,1-2.92-2.91V252.45a3.15,3.15,0,0,1,.65-2.16,2.19,2.19,0,0,1,1.71-.73,2.24,2.24,0,0,1,1.73.72A3,3,0,0,1,272.83,252.45Z" transform="translate(-4.36)"/><path class="b" d="M306.71,253.63H296v5.76h9.86a2.39,2.39,0,0,1,1.63.49,1.65,1.65,0,0,1,.53,1.29,1.71,1.71,0,0,1-.52,1.3,2.3,2.3,0,0,1-1.64.51H296v6.67h11.08a2.46,2.46,0,0,1,1.69.52,1.79,1.79,0,0,1,.57,1.39,1.75,1.75,0,0,1-.57,1.35,2.41,2.41,0,0,1-1.69.52H294.16a3,3,0,0,1-2.23-.69,3.09,3.09,0,0,1-.68-2.22V252.88a4,4,0,0,1,.3-1.67,1.91,1.91,0,0,1,.95-1,4,4,0,0,1,1.66-.3h12.55a2.42,2.42,0,0,1,1.69.51,1.71,1.71,0,0,1,.55,1.32,1.74,1.74,0,0,1-.55,1.34A2.47,2.47,0,0,1,306.71,253.63Z" transform="translate(-4.36)"/><path class="b" d="M316.58,270.93V252.45a3.1,3.1,0,0,1,.66-2.16,2.2,2.2,0,0,1,1.7-.73,2.28,2.28,0,0,1,1.74.72,3.08,3.08,0,0,1,.66,2.17v18.48a3.12,3.12,0,0,1-.66,2.18,2.28,2.28,0,0,1-1.74.72,2.17,2.17,0,0,1-1.69-.73A3.13,3.13,0,0,1,316.58,270.93Z" transform="translate(-4.36)"/><path class="b" d="M345.17,253.89H340v17a3.13,3.13,0,0,1-.65,2.19,2.4,2.4,0,0,1-3.42,0,3.12,3.12,0,0,1-.66-2.18v-17h-5.19a2.63,2.63,0,0,1-1.81-.54,1.81,1.81,0,0,1-.59-1.42,1.77,1.77,0,0,1,.62-1.44,2.66,2.66,0,0,1,1.78-.53h15.11a2.67,2.67,0,0,1,1.83.55,1.83,1.83,0,0,1,.6,1.42,1.79,1.79,0,0,1-.61,1.42A2.66,2.66,0,0,1,345.17,253.89Z" transform="translate(-4.36)"/><path class="b" d="M366.65,270.78l-1.12-2.95H356l-1.12,3a11.07,11.07,0,0,1-1.12,2.37,1.76,1.76,0,0,1-1.52.62,2.23,2.23,0,0,1-1.59-.66,2,2,0,0,1-.69-1.49,3.64,3.64,0,0,1,.16-1c.11-.34.29-.81.53-1.42l6-15.24.62-1.58a7.77,7.77,0,0,1,.77-1.53,3.15,3.15,0,0,1,1.07-1,3.29,3.29,0,0,1,1.64-.38,3.34,3.34,0,0,1,1.66.38,3.13,3.13,0,0,1,1.07,1,7.06,7.06,0,0,1,.69,1.27c.18.45.42,1.06.71,1.82L371,269.14a7.58,7.58,0,0,1,.72,2.52,2,2,0,0,1-.68,1.49,2.24,2.24,0,0,1-1.64.68,2.06,2.06,0,0,1-1-.2,2,2,0,0,1-.67-.54,5.06,5.06,0,0,1-.59-1.06Zm-9.41-6.52h7l-3.53-9.69Z" transform="translate(-4.36)"/><path class="b" d="M386.41,269.89l-3.76-14.95v16.2a3,3,0,0,1-.6,2,2.21,2.21,0,0,1-3.16,0,2.92,2.92,0,0,1-.61-2V252.58a2.35,2.35,0,0,1,.8-2.08,3.84,3.84,0,0,1,2.16-.54h1.48a5.3,5.3,0,0,1,1.92.25,1.57,1.57,0,0,1,.89.86,14.19,14.19,0,0,1,.66,2L389.6,266,393,253.1a13.23,13.23,0,0,1,.65-2,1.63,1.63,0,0,1,.89-.86,5.36,5.36,0,0,1,1.93-.25H398a3.85,3.85,0,0,1,2.17.54,2.35,2.35,0,0,1,.8,2.08v18.56a2.91,2.91,0,0,1-.61,2,2.2,2.2,0,0,1-3.16,0,3,3,0,0,1-.6-2v-16.2l-3.77,14.95c-.24,1-.44,1.69-.6,2.14a2.89,2.89,0,0,1-.85,1.24,2.52,2.52,0,0,1-1.73.56,2.54,2.54,0,0,1-2.31-1.28,5.27,5.27,0,0,1-.5-1.24Z" transform="translate(-4.36)"/><path class="b" d="M424.54,253.63H413.83v5.76h9.86a2.39,2.39,0,0,1,1.63.49,1.68,1.68,0,0,1,.53,1.29,1.71,1.71,0,0,1-.52,1.3,2.3,2.3,0,0,1-1.64.51h-9.86v6.67h11.08a2.46,2.46,0,0,1,1.69.52,1.83,1.83,0,0,1,.57,1.39,1.79,1.79,0,0,1-.57,1.35,2.41,2.41,0,0,1-1.69.52H412a2.5,2.5,0,0,1-2.92-2.91V252.88a4,4,0,0,1,.31-1.67,1.87,1.87,0,0,1,.95-1A4,4,0,0,1,412,250h12.55a2.42,2.42,0,0,1,1.69.51,1.71,1.71,0,0,1,.55,1.32,1.74,1.74,0,0,1-.55,1.34A2.47,2.47,0,0,1,424.54,253.63Z" transform="translate(-4.36)"/><path class="b" d="M440.42,252.41l9.14,13.83v-14a3,3,0,0,1,.58-2,2,2,0,0,1,1.57-.69,2,2,0,0,1,1.63.69,3,3,0,0,1,.58,2v18.45c0,2.06-.85,3.09-2.56,3.09a3.47,3.47,0,0,1-1.15-.18,3,3,0,0,1-1-.59,5.11,5.11,0,0,1-.83-.94c-.26-.35-.51-.72-.77-1.09l-8.92-13.67v13.75a2.9,2.9,0,0,1-.62,2,2.07,2.07,0,0,1-1.6.69,2,2,0,0,1-1.62-.7,3,3,0,0,1-.61-2V253a5.14,5.14,0,0,1,.26-1.81,2.61,2.61,0,0,1,1-1.18,2.79,2.79,0,0,1,1.52-.46,2.63,2.63,0,0,1,1.1.21,2.81,2.81,0,0,1,.8.56,6.44,6.44,0,0,1,.7.92Z" transform="translate(-4.36)"/><path class="b" d="M477.65,253.89h-5.19v17a3.13,3.13,0,0,1-.66,2.19,2.2,2.2,0,0,1-1.69.71,2.26,2.26,0,0,1-1.73-.72,3.12,3.12,0,0,1-.66-2.18v-17h-5.19a2.58,2.58,0,0,1-1.8-.54,2,2,0,0,1,0-2.86,2.68,2.68,0,0,1,1.78-.53h15.12a2.69,2.69,0,0,1,1.83.55,1.83,1.83,0,0,1,.6,1.42,1.79,1.79,0,0,1-.61,1.42A2.69,2.69,0,0,1,477.65,253.89Z" transform="translate(-4.36)"/><path class="b" d="M496.06,249.56a12.48,12.48,0,0,1,6.27,1.49,9.49,9.49,0,0,1,4,4.21,14.25,14.25,0,0,1,1.35,6.41,15.67,15.67,0,0,1-.74,4.94,10.68,10.68,0,0,1-2.21,3.86,9.64,9.64,0,0,1-3.61,2.5,13.21,13.21,0,0,1-4.92.86,13,13,0,0,1-4.93-.89,9.71,9.71,0,0,1-3.63-2.5,10.71,10.71,0,0,1-2.21-3.89,16,16,0,0,1-.74-4.92,15.13,15.13,0,0,1,.78-5,10.49,10.49,0,0,1,2.25-3.84,9.65,9.65,0,0,1,3.58-2.43A13.12,13.12,0,0,1,496.06,249.56Zm6.76,12.07a11.09,11.09,0,0,0-.83-4.46,6.28,6.28,0,0,0-2.38-2.86,6.5,6.5,0,0,0-3.55-1,6.38,6.38,0,0,0-2.63.54,5.88,5.88,0,0,0-2.08,1.56,7.55,7.55,0,0,0-1.38,2.62,12,12,0,0,0-.5,3.57,12.33,12.33,0,0,0,.5,3.62,7.52,7.52,0,0,0,1.43,2.68,6,6,0,0,0,2.11,1.59,6.29,6.29,0,0,0,2.62.53,6.18,6.18,0,0,0,5.79-3.72A11,11,0,0,0,502.82,261.63Z" transform="translate(-4.36)"/><path class="b" d="M246.51,135.87l17.38,12.89a2.42,2.42,0,0,0,3.7-1c2.39-6,5.05-15.55,9.3-20.94,4.49-5.67,42.69-21.92,51.78-30.67a34.94,34.94,0,0,0,10.38-18.59c2.84-15,1.63-36.46,1-45.1A3.7,3.7,0,0,0,335.91,29h-.05a7.45,7.45,0,0,0-6.51,6.25L325,63.16a10.48,10.48,0,0,1-1.83,4.49l-2.22,3.09a1.32,1.32,0,0,0,.08,1.62,6.14,6.14,0,0,1,1.05,7.08c-2.34,4.34-4.31,4.81-4.31,4.81L291.7,95.8a1.22,1.22,0,0,1-1.58-.58l-.06-.13a1.22,1.22,0,0,1,.6-1.63L315.3,82.57s5.6-3,4.2-7.26-7-1.93-7-1.93-34,10.75-46.54,26.21a157.11,157.11,0,0,0-20.2,33.31A2.41,2.41,0,0,0,246.51,135.87Z" transform="translate(-4.36)"/><circle class="a" cx="288.31" cy="45.51" r="11.86"/><circle class="b" cx="288.31" cy="45.51" r="4.9"/><path class="c" d="M256.51,24.52A2.1,2.1,0,0,1,256,25a2.15,2.15,0,0,1-2.43.29l-.17-.07a2.13,2.13,0,0,1-.64-.59h0c-9-12.23-23.37-20.62-38.73-19.87-24.19,1.19-42.16,23.66-37.62,47.53,3.9,20.48,19.89,37.39,34.82,50.89a272.19,272.19,0,0,0,25.29,20.13c1.93,1.37,4.49,3.52,7.26,5.59a156.06,156.06,0,0,1,19.27-31.09c13.05-16.14,46.92-27,48.35-27.42a10.93,10.93,0,0,1,6.28-.58,5,5,0,0,1,.47-.81l2.22-3.1a7.08,7.08,0,0,0,1.25-3.06l4.38-28a10.88,10.88,0,0,1,5-7.53C319.14-1.09,275.66-3.2,256.51,24.52Z" transform="translate(-4.36)"/><path class="b" d="M243.8,128.88c-2.77-2.07-5.33-4.22-7.26-5.59a272.19,272.19,0,0,1-25.29-20.13c-14.93-13.5-30.92-30.41-34.82-50.89C171.89,28.4,189.86,5.93,214.05,4.74c15.36-.75,29.77,7.64,38.73,19.87h0a2.13,2.13,0,0,0,.64.59l.17.07A2.15,2.15,0,0,0,256,25a2.1,2.1,0,0,0,.47-.47C275.66-3.2,319.14-1.09,331.05,27.3a10.85,10.85,0,0,1,3.71-1.43c-14.61-34.32-59.31-32.66-80.2-5.81C233.38-5.48,190.41-7,175.31,26.46c-19,42.25,31.38,83.43,66.91,106a4.58,4.58,0,0,1,.14-.53C242.78,131,243.26,130,243.8,128.88Z" transform="translate(-4.36)"/></svg>